<svg xmlns="http://www.w3.org/2000/svg" version="1.1" xmlns:xlink="http://www.w3.org/1999/xlink" xmlns:svgjs="http://svgjs.dev/svgjs" viewBox="0 0 1422 800"><circle r="12" cx="874" cy="510" fill="hsl(43, 100%, 59%)" opacity="0.33"></circle><circle r="7" cx="1251" cy="692" fill="hsl(5, 100%, 59%)" opacity="0.75"></circle><circle r="16.5" cx="641" cy="63" fill="hsl(66, 100%, 59%)" opacity="0.58"></circle><circle r="8" cx="1069" cy="224" fill="hsl(12, 100%, 59%)" opacity="0.62"></circle><circle r="7.5" cx="275" cy="608" fill="hsl(14, 100%, 59%)" opacity="0.25"></circle><circle r="8" cx="384" cy="739" fill="hsl(16, 100%, 59%)" opacity="0.34"></circle><circle r="8" cx="1057" cy="522" fill="hsl(15, 100%, 59%)" opacity="0.38"></circle><circle r="9" cx="1003" cy="388" fill="hsl(22, 100%, 59%)" opacity="0.98"></circle><circle r="11" cx="646" cy="663" fill="hsl(43, 100%, 59%)" opacity="0.73"></circle><circle r="7" cx="1319" cy="303" fill="hsl(10, 100%, 59%)" opacity="0.26"></circle><circle r="10" cx="983" cy="22" fill="hsl(34, 100%, 59%)" opacity="0.21"></circle><circle r="9.5" cx="476" cy="240" fill="hsl(24, 100%, 59%)" opacity="0.95"></circle><circle r="17" cx="776" cy="25" fill="hsl(64, 100%, 59%)" opacity="0.96"></circle><circle r="8.5" cx="421" cy="530" fill="hsl(18, 100%, 59%)" opacity="0.60"></circle><circle r="13" cx="772" cy="158" fill="hsl(52, 100%, 59%)" opacity="0.18"></circle><circle r="8" cx="189" cy="573" fill="hsl(18, 100%, 59%)" opacity="0.46"></circle><circle r="13" cx="835" cy="604" fill="hsl(47, 100%, 59%)" opacity="0.84"></circle><circle r="10.5" cx="18" cy="81" fill="hsl(38, 100%, 59%)" opacity="0.35"></circle><circle r="8" cx="418" cy="400" fill="hsl(18, 100%, 59%)" opacity="0.63"></circle><circle r="10.5" cx="969" cy="303" fill="hsl(30, 100%, 59%)" opacity="0.55"></circle><circle r="12.5" cx="932" cy="23" fill="hsl(44, 100%, 59%)" opacity="0.73"></circle><circle r="13" cx="681" cy="288" fill="hsl(45, 100%, 59%)" opacity="0.68"></circle><circle r="8.5" cx="196" cy="62" fill="hsl(16, 100%, 59%)" opacity="0.48"></circle><circle r="11" cx="622" cy="565" fill="hsl(41, 100%, 59%)" opacity="0.43"></circle><circle r="11" cx="552" cy="421" fill="hsl(32, 100%, 59%)" opacity="0.37"></circle><circle r="11" cx="62" cy="508" fill="hsl(32, 100%, 59%)" opacity="0.43"></circle><circle r="12" cx="893" cy="463" fill="hsl(40, 100%, 59%)" opacity="0.79"></circle><circle r="6.5" cx="1137" cy="336" fill="hsl(5, 100%, 59%)" opacity="0.26"></circle><circle r="6" cx="1227" cy="309" fill="hsl(4, 100%, 59%)" opacity="0.21"></circle><circle r="8" cx="358" cy="186" fill="hsl(15, 100%, 59%)" opacity="0.22"></circle><circle r="7.5" cx="308" cy="186" fill="hsl(13, 100%, 59%)" opacity="0.90"></circle><circle r="6.5" cx="1275" cy="736" fill="hsl(6, 100%, 59%)" opacity="0.91"></circle><circle r="7.5" cx="172" cy="20" fill="hsl(17, 100%, 59%)" opacity="0.19"></circle><circle r="13" cx="805" cy="648" fill="hsl(48, 100%, 59%)" opacity="0.95"></circle><circle r="12.5" cx="876" cy="688" fill="hsl(43, 100%, 59%)" opacity="0.46"></circle><circle r="11" cx="569" cy="466" fill="hsl(35, 100%, 59%)" opacity="0.20"></circle><circle r="12" cx="510" cy="93" fill="hsl(44, 100%, 59%)" opacity="0.96"></circle><circle r="9" cx="449" cy="277" fill="hsl(22, 100%, 59%)" opacity="0.92"></circle><circle r="6.5" cx="1231" cy="522" fill="hsl(4, 100%, 59%)" opacity="0.68"></circle><circle r="11" cx="664" cy="626" fill="hsl(43, 100%, 59%)" opacity="0.18"></circle><circle r="6.5" cx="1193" cy="273" fill="hsl(4, 100%, 59%)" opacity="0.64"></circle><circle r="9.5" cx="361" cy="106" fill="hsl(22, 100%, 59%)" opacity="0.27"></circle><circle r="7.5" cx="280" cy="226" fill="hsl(14, 100%, 59%)" opacity="0.57"></circle><circle r="8" cx="1347" cy="172" fill="hsl(12, 100%, 59%)" opacity="0.49"></circle><circle r="8.5" cx="182" cy="527" fill="hsl(18, 100%, 59%)" opacity="0.88"></circle><circle r="11.5" cx="648" cy="434" fill="hsl(43, 100%, 59%)" opacity="0.29"></circle><circle r="6.5" cx="1187" cy="557" fill="hsl(4, 100%, 59%)" opacity="0.84"></circle><circle r="7" cx="252" cy="780" fill="hsl(14, 100%, 59%)" opacity="0.37"></circle><circle r="8" cx="214" cy="357" fill="hsl(17, 100%, 59%)" opacity="0.22"></circle><circle r="8.5" cx="1358" cy="370" fill="hsl(16, 100%, 59%)" opacity="0.73"></circle><circle r="8" cx="1302" cy="47" fill="hsl(17, 100%, 59%)" opacity="0.44"></circle><circle r="13" cx="711" cy="568" fill="hsl(47, 100%, 59%)" opacity="0.92"></circle><circle r="9" cx="447" cy="574" fill="hsl(22, 100%, 59%)" opacity="0.24"></circle><circle r="12" cx="893" cy="240" fill="hsl(40, 100%, 59%)" opacity="0.95"></circle><circle r="8" cx="1082" cy="561" fill="hsl(12, 100%, 59%)" opacity="0.30"></circle><circle r="8.5" cx="1399" cy="295" fill="hsl(19, 100%, 59%)" opacity="0.36"></circle><circle r="7" cx="277" cy="744" fill="hsl(14, 100%, 59%)" opacity="0.33"></circle><circle r="9" cx="394" cy="486" fill="hsl(16, 100%, 59%)" opacity="0.62"></circle><circle r="11.5" cx="931" cy="269" fill="hsl(37, 100%, 59%)" opacity="0.73"></circle><circle r="8" cx="1037" cy="19" fill="hsl(28, 100%, 59%)" opacity="0.79"></circle><circle r="6.5" cx="1247" cy="268" fill="hsl(5, 100%, 59%)" opacity="0.72"></circle><circle r="9" cx="150" cy="656" fill="hsl(22, 100%, 59%)" opacity="0.50"></circle><circle r="8.5" cx="102" cy="55" fill="hsl(24, 100%, 59%)" opacity="0.48"></circle><circle r="10" cx="518" cy="624" fill="hsl(30, 100%, 59%)" opacity="0.39"></circle><circle r="7.5" cx="327" cy="307" fill="hsl(13, 100%, 59%)" opacity="0.81"></circle><circle r="12.5" cx="855" cy="558" fill="hsl(45, 100%, 59%)" opacity="0.84"></circle><circle r="10" cx="572" cy="546" fill="hsl(35, 100%, 59%)" opacity="0.88"></circle><circle r="8.5" cx="1400" cy="559" fill="hsl(19, 100%, 59%)" opacity="0.57"></circle><circle r="9.5" cx="469" cy="621" fill="hsl(24, 100%, 59%)" opacity="0.12"></circle><circle r="8" cx="129" cy="749" fill="hsl(25, 100%, 59%)" opacity="0.86"></circle><circle r="7" cx="279" cy="704" fill="hsl(14, 100%, 59%)" opacity="0.36"></circle></svg>