<svg xmlns="http://www.w3.org/2000/svg" version="1.1" xmlns:xlink="http://www.w3.org/1999/xlink" xmlns:svgjs="http://svgjs.dev/svgjs" viewBox="0 0 1422 800"><defs><filter id="llleaves-blur-2" x="-100%" y="-100%" width="400%" height="400%"><feGaussianBlur in="SourceGraphic" stdDeviation="2"></feGaussianBlur></filter><filter id="llleaves-blur-3" x="-100%" y="-100%" width="400%" height="400%"><feGaussianBlur in="SourceGraphic" stdDeviation="4"></feGaussianBlur></filter><filter id="llleaves-blur-4" x="-100%" y="-100%" width="400%" height="400%"><feGaussianBlur in="SourceGraphic" stdDeviation="12"></feGaussianBlur></filter></defs><g fill="hsl(50, 98%, 50%)"><path d="M900 598H950C978 598 1000 620 1000 648H950C922 648 900 626 900 598Z " transform="matrix(-0.16704676355661344,0.23856750240609897,-0.23856750240609897,-0.16704676355661344,1257.3219793777826,500.43100640997613)" filter="url(#llleaves-blur-3)" opacity="0.45"></path><path d="M333 38H383C411 38 433 60 433 88H383C355 88 333 66 333 38Z " transform="matrix(-0.29329342570284656,0.15594688069050883,-0.15594688069050883,-0.29329342570284656,505.1560355276922,21.749830514814455)" filter="url(#llleaves-blur-2)" opacity="0.51"></path><path d="M635 514H685C713 514 735 536 735 564H685C657 564 635 542 635 514Z " transform="matrix(-0.2547779114581769,0.19198892705604026,-0.19198892705604026,-0.2547779114581769,963.0049010320568,544.8128792425698)" filter="url(#llleaves-blur-2)" opacity="0.49"></path><path d="M222 398H272C300 398 322 420 322 448H272C244 448 222 426 222 398Z " transform="matrix(-0.3785444144460601,-0.013219062239259456,0.013219062239259456,-0.3785444144460601,369.3724174021215,586.719872239762)" filter="url(#llleaves-blur-2)" opacity="0.58"></path><path d="M844 314H894C922 314 944 336 944 364H894C866 364 844 342 844 314Z " transform="matrix(-0.28091703639445526,0.16879198438336016,-0.16879198438336016,-0.28091703639445526,1202.360313242602,283.33084129899635)" filter="url(#llleaves-blur-2)" opacity="0.50"></path><path d="M748 432H798C826 432 848 454 848 482H798C770 482 748 460 748 432Z " transform="matrix(-0.3517303809703272,0.06836946018613975,-0.06836946018613975,-0.3517303809703272,1109.925687319387,563.1819548749)" filter="url(#llleaves-blur-2)" opacity="0.55"></path><path d="M1109 38H1159C1187 38 1209 60 1209 88H1159C1131 88 1109 66 1109 38Z " transform="matrix(-0.3299412846861049,0.1072044219949041,-0.1072044219949041,-0.3299412846861049,1548.1558275368743,-40.463624156869244)" filter="url(#llleaves-blur-2)" opacity="0.53"></path><path d="M959 48H1009C1037 48 1059 70 1059 98H1009C981 98 959 76 959 48Z " transform="matrix(-0.37358378733186354,0.00652092926400708,-0.00652092926400708,-0.37358378733186354,1386.4220692541228,93.6919988478429)" filter="url(#llleaves-blur-2)" opacity="0.57"></path><path d="M755 583H805C833 583 855 605 855 633H805C777 633 755 611 755 583Z " transform="matrix(-0.35414818991873737,0.06244588105173897,-0.06244588105173897,-0.35414818991873737,1128.056388564041,773.0531652239425)" filter="url(#llleaves-blur-2)" opacity="0.55"></path><path d="M1303 304H1353C1381 304 1403 326 1403 354H1353C1325 354 1303 332 1303 304Z " transform="matrix(-0.25759875658401565,-0.38190586204887544,0.38190586204887544,-0.25759875658401565,1575.8840890440931,930.4686222682697)" opacity="0.71"></path><path d="M5 210H55C83 210 105 232 105 260H55C27 260 5 238 5 210Z " transform="matrix(0.1951805453745204,-0.5084627043961367,0.5084627043961367,0.1951805453745204,-75.22366552869073,217.09802057877522)" opacity="0.84"></path><path d="M706 292H756C784 292 806 314 806 342H756C728 342 706 320 706 292Z " transform="matrix(-0.33687784856119257,0.09659816863927663,-0.09659816863927663,-0.33687784856119257,1041.3012729709121,350.7620625026049)" filter="url(#llleaves-blur-2)" opacity="0.54"></path><path d="M283 153H333C361 153 383 175 383 203H333C305 203 283 181 283 153Z " transform="matrix(-0.2496242832835977,0.19502786455651597,-0.19502786455651597,-0.2496242832835977,450.8398462244979,157.48884352716055)" filter="url(#llleaves-blur-2)" opacity="0.49"></path><path d="M185 716H235C263 716 285 738 285 766H235C207 766 185 744 185 716Z " transform="matrix(-0.3224358209638112,-0.30067626735993597,0.30067626735993597,-0.3224358209638112,87.97130381278308,1050.583866163769)" opacity="0.68"></path><path d="M571 132H621C649 132 671 154 671 182H621C593 182 571 160 571 132Z " transform="matrix(-0.0915079690875574,0.2514160787682156,-0.2514160787682156,-0.0915079690875574,717.298773169983,15.23736623168466)" filter="url(#llleaves-blur-3)" opacity="0.41"></path><path d="M1306 574H1356C1384 574 1406 596 1406 624H1356C1328 624 1306 602 1306 574Z " transform="matrix(-0.25759875658401565,-0.38190586204887544,0.38190586204887544,-0.25759875658401565,1476.5423025606487,1271.1660041321006)" opacity="0.71"></path><path d="M215 260H265C293 260 315 282 315 310H265C237 310 215 288 215 260Z " transform="matrix(-0.3778096338906058,-0.16037067490793283,0.16037067490793283,-0.3778096338906058,319.41391063224967,435.17397450942485)" opacity="0.63"></path><path d="M1307 170H1357C1385 170 1407 192 1407 220H1357C1329 220 1307 198 1307 170Z " transform="matrix(-0.25759875658401565,-0.38190586204887544,0.38190586204887544,-0.25759875658401565,1632.0898695849785,763.478012334207)" opacity="0.71"></path><path d="M1143 697H1193C1221 697 1243 719 1243 747H1193C1165 747 1143 725 1143 697Z " transform="matrix(-0.24494468705352418,0.1983522965918918,-0.1983522965918918,-0.24494468705352418,1628.4293697942003,662.2157742185175)" filter="url(#llleaves-blur-2)" opacity="0.48"></path><path d="M6 545H56C84 545 106 567 106 595H56C28 595 6 573 6 545Z " transform="matrix(0.1951805453745204,-0.5084627043961367,0.5084627043961367,0.1951805453745204,-244.753852046771,487.22100058270706)" opacity="0.84"></path><path d="M567 251H617C645 251 667 273 667 301H617C589 301 567 279 567 251Z " transform="matrix(-0.06743069093766949,0.25165476456885666,-0.25165476456885666,-0.06743069093766949,728.0614513295466,139.33988095981223)" filter="url(#llleaves-blur-3)" opacity="0.40"></path><path d="M492 718H542C570 718 592 740 592 768H542C514 768 492 746 492 718Z " transform="matrix(0.008158024537610782,0.2336152569472621,-0.2336152569472621,0.008158024537610782,711.1544866124307,610.3191185031392)" filter="url(#llleaves-blur-3)" opacity="0.36"></path><path d="M598 385H648C676 385 698 407 698 435H648C620 435 598 413 598 385Z " transform="matrix(-0.12663387611726526,0.2485329756205826,-0.2485329756205826,-0.12663387611726526,831.9572717284268,300.8705210059412)" filter="url(#llleaves-blur-3)" opacity="0.43"></path><path d="M21 48H71C99 48 121 70 121 98H71C43 98 21 76 21 48Z " transform="matrix(-0.29980336851110667,-0.33296537305638324,0.33296537305638324,-0.29980336851110667,67.9795669311726,118.52618738831399)" opacity="0.69"></path><path d="M1286 36H1336C1364 36 1386 58 1386 86H1336C1308 86 1286 64 1286 36Z " transform="matrix(-0.2630814808089449,-0.37571929242805824,0.37571929242805824,-0.2630814808089449,1664.5579815226388,579.0089450132314)" opacity="0.70"></path><path d="M1287 434H1337C1365 434 1387 456 1387 484H1337C1309 484 1287 462 1287 434Z " transform="matrix(-0.25759875658401565,-0.38190586204887544,0.38190586204887544,-0.25759875658401565,1506.1147468723952,1087.8459668314097)" opacity="0.71"></path><path d="M724 162H774C802 162 824 184 824 212H774C746 212 724 190 724 162Z " transform="matrix(-0.3517303809703272,0.06836946018613975,-0.06836946018613975,-0.3517303809703272,1059.0244039258414,199.85561905737902)" filter="url(#llleaves-blur-2)" opacity="0.55"></path><path d="M427 181H477C505 181 527 203 527 231H477C449 231 427 209 427 181Z " transform="matrix(0.023795616330581887,0.22640016618200678,-0.22640016618200678,0.023795616330581887,512.2879252438058,93.10522376708288)" filter="url(#llleaves-blur-3)" opacity="0.35"></path><path d="M1119 415H1169C1197 415 1219 437 1219 465H1169C1141 465 1119 443 1119 415Z " transform="matrix(-0.16659958349460727,0.23792886309189004,-0.23792886309189004,-0.16659958349460727,1468.4436128656278,235.16497578320775)" filter="url(#llleaves-blur-3)" opacity="0.44"></path><path d="M1171 550H1221C1249 550 1271 572 1271 600H1221C1193 600 1171 578 1171 550Z " transform="matrix(-0.323040685097974,0.11757719383262417,-0.11757719383262417,-0.323040685097974,1683.0395629583852,617.186640261701)" filter="url(#llleaves-blur-2)" opacity="0.53"></path><path d="M7 387H57C85 387 107 409 107 437H57C29 437 7 415 7 387Z " transform="matrix(0.1951805453745204,-0.5084627043961367,0.5084627043961367,0.1951805453745204,-163.61192529755596,360.56798945627736)" opacity="0.84"></path><path d="M1173 150H1223C1251 150 1273 172 1273 200H1223C1195 200 1173 178 1173 150Z " transform="matrix(-0.330914506515506,0.10752064093608035,-0.10752064093608035,-0.330914506515506,1646.524553632278,101.4122947753873)" filter="url(#llleaves-blur-2)" opacity="0.53"></path><path d="M649 32H699C727 32 749 54 749 82H699C671 82 649 60 649 32Z " transform="matrix(-0.30965524972484715,0.13786739973388026,-0.13786739973388026,-0.30965524972484715,923.3074613424992,-21.718963179666005)" filter="url(#llleaves-blur-2)" opacity="0.52"></path><path d="M128 155H178C206 155 228 177 228 205H178C150 205 128 183 128 155Z " transform="matrix(-0.22733255180124814,-0.4101187797771666,0.4101187797771666,-0.22733255180124814,144.64381386073217,293.92100212456035)" opacity="0.72"></path><path d="M337 301H387C415 301 437 323 437 351H387C359 351 337 329 337 301Z " transform="matrix(-0.08200991430028134,0.2524005631271294,-0.2524005631271294,-0.08200991430028134,501.02042041365314,255.05621413169263)" filter="url(#llleaves-blur-3)" opacity="0.41"></path><path d="M487 480H537C565 480 587 502 587 530H537C509 530 487 508 487 480Z " transform="matrix(0.008158024537610782,0.2336152569472621,-0.2336152569472621,0.008158024537610782,650.5948455816704,375.4288046278268)" filter="url(#llleaves-blur-3)" opacity="0.36"></path><path d="M127 474H177C205 474 227 496 227 524H177C149 524 127 502 127 474Z " transform="matrix(-0.11098673572876387,-0.4807363681746914,0.4807363681746914,-0.11098673572876387,-43.24279549517979,639.4727182955736)" opacity="0.76"></path><path d="M21 706H71C99 706 121 728 121 756H71C43 756 21 734 21 706Z " transform="matrix(0.1575205538058582,-0.5152265158809632,0.5152265158809632,0.1575205538058582,-316.81454242920006,652.4335577954661)" opacity="0.83"></path><path d="M1028 537H1078C1106 537 1128 559 1128 587H1078C1050 587 1028 565 1028 537Z " transform="matrix(-0.04387117593585664,0.24880580249027376,-0.24880580249027376,-0.04387117593585664,1265.1219886583874,318.44294579143633)" filter="url(#llleaves-blur-3)" opacity="0.39"></path><path d="M828 715H878C906 715 928 737 928 765H878C850 765 828 743 828 715Z " transform="matrix(-0.32043975195598157,0.12300529617157084,-0.12300529617157084,-0.32043975195598157,1250.3700213843142,869.1267664087873)" filter="url(#llleaves-blur-2)" opacity="0.53"></path><path d="M120 609H170C198 609 220 631 220 659H170C142 659 120 637 120 609Z " transform="matrix(-0.11098673572876387,-0.4807363681746914,0.4807363681746914,-0.11098673572876387,-115.91911234886447,786.0907730417339)" opacity="0.76"></path><path d="M406 593H456C484 593 506 615 506 643H456C428 643 406 621 406 593Z " transform="matrix(0.008166917421629838,0.23386991582644734,-0.23386991582644734,0.008166917421629838,596.8074936364812,506.30816341657277)" filter="url(#llleaves-blur-3)" opacity="0.36"></path><path d="M478 37H528C556 37 578 59 578 87H528C500 87 478 65 478 37Z " transform="matrix(-0.06750817705103204,0.25194394668080683,-0.25194394668080683,-0.06750817705103204,579.264842177155,-66.84089687030203)" filter="url(#llleaves-blur-3)" opacity="0.40"></path><path d="M1159 288H1209C1237 288 1259 310 1259 338H1209C1181 338 1159 316 1159 288Z " transform="matrix(-0.24494468705352418,0.1983522965918918,-0.1983522965918918,-0.24494468705352418,1567.222395480973,149.85976046815588)" filter="url(#llleaves-blur-2)" opacity="0.48"></path><path d="M178 35H228C256 35 278 57 278 85H228C200 85 178 63 178 35Z " transform="matrix(-0.3666512382139679,-0.2032381000683677,0.2032381000683677,-0.3666512382139679,299.4021963086826,128.3373611084259)" opacity="0.64"></path><path d="M458 340H508C536 340 558 362 558 390H508C480 390 458 368 458 340Z " transform="matrix(0.02380033594839871,0.22644507034600067,-0.22644507034600067,0.02380033594839871,578.5618800145037,241.27878164306614)" filter="url(#llleaves-blur-3)" opacity="0.35"></path><path d="M561 612H611C639 612 661 634 661 662H611C583 662 561 640 561 612Z " transform="matrix(-0.06743069093766949,0.25165476456885666,-0.25165476456885666,-0.06743069093766949,812.5042371932777,526.1922889757241)" filter="url(#llleaves-blur-3)" opacity="0.40"></path><path d="M256 570H306C334 570 356 592 356 620H306C278 620 256 598 256 570Z " transform="matrix(-0.3301283848500446,0.10726521452333651,-0.10726521452333651,-0.3301283848500446,470.8420884054989,758.6032333416355)" filter="url(#llleaves-blur-2)" opacity="0.53"></path><path d="M990 345H1040C1068 345 1090 367 1090 395H1040C1012 395 990 373 990 345Z " transform="matrix(-0.04844865183437077,0.2492467063628595,-0.2492467063628595,-0.04844865183437077,1182.6078792620037,128.7094265613433)" filter="url(#llleaves-blur-3)" opacity="0.39"></path><path d="M345 453H395C423 453 445 475 445 503H395C367 503 345 481 345 453Z " transform="matrix(-0.08200991430028134,0.2524005631271294,-0.2524005631271294,-0.08200991430028134,548.041385323379,417.50251660031836)" filter="url(#llleaves-blur-3)" opacity="0.41"></path><path d="M890 460H940C968 460 990 482 990 510H940C912 510 890 488 890 460Z " transform="matrix(-0.22648742477516978,0.21120294042331464,-0.21120294042331464,-0.22648742477516978,1255.3316053939673,396.3156370180416)" filter="url(#llleaves-blur-2)" opacity="0.47"></path><path d="M880 182H930C958 182 980 204 980 232H930C902 232 880 210 880 182Z " transform="matrix(-0.22648742477516978,0.21120294042331464,-0.21120294042331464,-0.22648742477516978,1184.352313708534,57.46416233477754)" filter="url(#llleaves-blur-2)" opacity="0.47"></path><path d="M807 42H857C885 42 907 64 907 92H857C829 92 807 70 807 42Z " transform="matrix(-0.35640208113984595,-0.2314502177236112,0.2314502177236112,-0.35640208113984595,1146.9294189493662,289.2317760255045)" opacity="0.65"></path><path d="M665 709H715C743 709 765 731 765 759H715C687 759 665 737 665 709Z " transform="matrix(-0.30528478521075453,0.14235663326197873,-0.14235663326197873,-0.30528478521075453,1037.768390239982,856.294039562379)" filter="url(#llleaves-blur-2)" opacity="0.52"></path><path d="M333 710H383C411 710 433 732 433 760H383C355 760 333 738 333 710Z " transform="matrix(-0.1616655645447772,0.2396790559466639,-0.2396790559466639,-0.1616655645447772,621.0820173414477,762.0271115128389)" filter="url(#llleaves-blur-3)" opacity="0.44"></path><path d="M1029 195H1079C1107 195 1129 217 1129 245H1079C1051 245 1029 223 1029 195Z " transform="matrix(-0.04387117593585664,0.24880580249027376,-0.24880580249027376,-0.04387117593585664,1181.0742753826496,-38.809802181116936)" filter="url(#llleaves-blur-3)" opacity="0.39"></path><path d="M101 309H151C179 309 201 331 201 359H151C123 359 101 337 101 309Z " transform="matrix(-0.11098673572876387,-0.4807363681746914,0.4807363681746914,-0.11098673572876387,7.193050124696413,443.66076132778556)" opacity="0.76"></path><path d="M1294 709H1344C1372 709 1394 731 1394 759H1344C1316 759 1294 737 1294 709Z " transform="matrix(-0.25759875658401565,-0.38190586204887544,0.38190586204887544,-0.25759875658401565,1409.8938261050425,1436.3589659263562)" opacity="0.71"></path><path d="M996 705H1046C1074 705 1096 727 1096 755H1046C1018 755 996 733 996 705Z " transform="matrix(-0.04844865183437077,0.2492467063628595,-0.2492467063628595,-0.04844865183437077,1278.6273854636393,504.65546098353957)" filter="url(#llleaves-blur-3)" opacity="0.39"></path></g></svg>